<svg xmlns="http://www.w3.org/2000/svg" xmlns:xlink="http://www.w3.org/1999/xlink" width="1080" zoomAndPan="magnify" viewBox="0 0 810 809.999993" height="1080" preserveAspectRatio="xMidYMid meet" version="1.0"><path fill="#c08552" d="M 426.304688 325.117188 C 439.460938 307.371094 452.613281 289.746094 465.769531 272 C 478.925781 254.378906 492.078125 236.757812 505.234375 219.132812 C 513.050781 203 517.890625 195.308594 519.753906 195.925781 C 520.746094 196.300781 520.871094 199.402344 519.878906 205.234375 C 520.746094 204.613281 537.25 193.199219 544.574219 198.90625 C 544.574219 198.90625 546.3125 200.269531 547.054688 202.503906 C 550.902344 213.796875 521.613281 234.148438 517.394531 237.128906 C 504.363281 257.234375 491.210938 277.214844 478.179688 297.191406 C 465.023438 317.296875 451.996094 337.277344 438.839844 357.382812 C 436.359375 355.273438 433.132812 352.046875 430.523438 347.207031 C 425.4375 337.898438 425.933594 328.839844 426.304688 325.117188 Z M 349.734375 320.027344 C 324.296875 284.164062 298.855469 248.296875 273.414062 212.433594 C 265.597656 196.300781 260.757812 188.605469 258.894531 189.226562 C 257.902344 189.597656 257.777344 192.699219 258.769531 198.535156 C 257.777344 197.914062 241.398438 186.496094 234.074219 192.203125 C 234.074219 192.203125 232.335938 193.570312 231.59375 195.804688 C 227.746094 207.097656 257.035156 227.449219 261.253906 230.425781 C 273.664062 250.902344 285.949219 271.257812 298.359375 291.734375 C 310.769531 312.210938 323.054688 332.5625 335.339844 353.039062 C 337.449219 352.046875 344.277344 348.570312 348.246094 340.503906 C 352.960938 330.949219 350.355469 321.890625 349.734375 320.027344 Z M 349.734375 320.027344 " fill-opacity="1" fill-rule="nonzero"/><path fill="#c08552" d="M 440.703125 622.832031 C 452.863281 675.574219 465.023438 728.316406 477.1875 781.058594 C 467.507812 782.546875 457.953125 784.039062 448.273438 785.527344 C 432.136719 733.652344 415.882812 681.777344 399.75 629.90625 C 413.398438 627.671875 427.050781 625.3125 440.703125 622.832031 Z M 329.878906 621.09375 C 319.578125 674.207031 309.28125 727.449219 298.980469 780.5625 C 308.660156 781.679688 318.339844 782.796875 328.019531 783.914062 C 342.414062 731.542969 356.6875 679.171875 371.082031 626.679688 C 357.304688 624.816406 343.65625 622.957031 329.878906 621.09375 Z M 329.878906 621.09375 " fill-opacity="1" fill-rule="nonzero"/><path fill="#7ed957" d="M 417.121094 328.714844 C 418.488281 328.21875 419.851562 327.597656 421.21875 327.101562 M 421.21875 327.101562 C 422.957031 326.480469 424.570312 325.734375 426.304688 325.117188 C 426.304688 329.085938 426.925781 335.042969 429.410156 341.746094 C 432.136719 349.191406 436.109375 354.402344 438.839844 357.382812 C 451.746094 438.292969 464.652344 519.207031 477.433594 600.121094 C 467.136719 608.808594 434 634.25 384.359375 636.605469 C 339.4375 638.714844 306.796875 620.722656 294.882812 613.398438 C 308.535156 526.652344 321.9375 439.785156 335.339844 353.039062 C 338.070312 350.183594 341.296875 346.089844 344.152344 340.503906 C 348.246094 332.3125 349.488281 324.742188 349.734375 320.027344 C 356.1875 323.625 362.644531 327.101562 369.21875 330.699219 C 374.183594 333.058594 384.980469 337.402344 398.011719 335.292969 C 402.355469 334.546875 406.078125 333.304688 409.054688 332.066406 C 411.785156 330.949219 414.390625 329.832031 417.121094 328.714844 " fill-opacity="1" fill-rule="nonzero"/><path fill="#3d1e15" d="M 391.804688 302.03125 C 383.492188 301.414062 375.175781 300.917969 366.984375 300.296875 C 359.914062 305.757812 350.234375 306.003906 343.28125 300.917969 C 335.589844 295.457031 332.984375 284.78125 337.203125 275.972656 C 330.5 272.375 326.652344 264.925781 327.644531 257.480469 C 328.640625 249.414062 334.96875 242.960938 343.160156 241.597656 C 342.910156 241.222656 338.566406 233.28125 342.664062 225.960938 C 346.136719 219.753906 354.203125 216.652344 361.773438 219.011719 C 359.417969 213.175781 360.53125 206.722656 364.378906 203.375 C 369.59375 198.65625 380.015625 199.527344 385.601562 207.59375 C 389.945312 200.765625 398.136719 197.914062 405.085938 200.394531 C 410.792969 202.378906 414.890625 207.71875 415.757812 213.921875 C 421.464844 210.820312 428.539062 211.5625 433.253906 215.785156 C 438.21875 220.25 439.707031 227.449219 436.980469 233.652344 C 442.8125 232.910156 448.394531 235.761719 450.753906 240.480469 C 453.730469 246.3125 451.5 254.378906 445.046875 258.226562 C 445.789062 258.847656 450.628906 262.691406 450.753906 268.898438 C 450.878906 275.101562 446.285156 280.9375 439.460938 283.046875 C 439.832031 284.410156 442.4375 293.71875 437.101562 300.667969 C 431.269531 308.363281 417.742188 310.347656 406.449219 303.027344 C 403.347656 302.777344 400.246094 302.652344 397.140625 302.40625 M 397.140625 302.40625 C 395.40625 302.28125 393.667969 302.15625 391.929688 302.03125 " fill-opacity="1" fill-rule="nonzero"/><path fill="#c08552" d="M 375.050781 318.910156 C 375.175781 317.296875 375.175781 315.683594 375.300781 313.945312 C 367.234375 307.988281 361.402344 295.953125 359.539062 280.9375 C 358.671875 281.554688 357.183594 282.550781 355.816406 282.054688 C 350.109375 280.316406 349.488281 256.738281 355.320312 254.625 C 356.808594 254.128906 358.421875 255 359.539062 255.742188 C 360.285156 255.742188 365 256.117188 368.847656 252.394531 C 373.066406 248.296875 372.324219 242.714844 372.199219 242.09375 C 373.5625 241.96875 378.652344 241.472656 382.996094 237.378906 C 387.089844 233.40625 387.960938 228.691406 388.082031 227.199219 C 388.082031 227.820312 388.828125 233.652344 394.039062 236.632812 C 398.011719 238.992188 403.222656 238.742188 407.195312 236.011719 C 406.699219 237.5 405.332031 243.210938 408.0625 249.414062 C 410.917969 255.992188 416.503906 258.722656 417.867188 259.34375 C 419.605469 257.976562 421.839844 256.613281 423.699219 257.355469 C 429.53125 259.714844 429.65625 280.066406 423.699219 282.425781 C 421.714844 283.167969 419.480469 281.929688 417.992188 280.9375 C 417.742188 282.175781 413.152344 303.523438 400.617188 313.324219 C 400.367188 319.53125 400.121094 325.859375 399.871094 332.066406 C 402.976562 332.066406 405.953125 332.066406 409.054688 332.066406 C 408.433594 343.730469 399.375 352.664062 389.199219 353.039062 C 380.265625 353.285156 371.824219 346.832031 369.46875 338.890625 C 368.476562 335.539062 368.597656 332.6875 368.972656 330.699219 C 370.832031 330.824219 372.695312 330.949219 374.554688 331.074219 C 374.679688 328.714844 374.804688 326.234375 374.929688 323.875 M 375.050781 318.910156 C 374.929688 320.523438 374.929688 322.261719 374.804688 323.875 " fill-opacity="1" fill-rule="nonzero"/><path fill="#00bf63" d="M 385.476562 431.839844 L 397.886719 431.839844 M 397.886719 431.839844 L 426.554688 431.839844 C 429.78125 462.992188 405.582031 485.949219 384.980469 484.832031 C 365.621094 483.714844 345.269531 460.757812 348.867188 431.839844 L 385.476562 431.839844 " fill-opacity="1" fill-rule="nonzero"/><path fill="#f3e9dc" d="M 474.953125 771.378906 C 486.742188 782.671875 496.671875 785.527344 503.867188 785.773438 C 518.386719 786.519531 529.433594 777.585938 537.5 783.292969 C 541.222656 785.898438 542.464844 790.367188 543.085938 793.71875 C 512.925781 799.054688 482.894531 804.390625 452.738281 809.851562 C 450.382812 798.929688 448.023438 788.007812 445.664062 777.085938 C 447.898438 777.085938 450.382812 777.085938 452.863281 776.839844 C 461.796875 776.09375 469.246094 773.738281 474.953125 771.378906 Z M 301.089844 769.765625 C 289.671875 782.050781 279.742188 785.402344 272.546875 786.023438 C 258.152344 787.265625 246.734375 778.699219 238.789062 784.65625 C 235.191406 787.386719 234.074219 791.980469 233.578125 795.207031 C 263.859375 799.550781 294.140625 803.769531 324.417969 808.113281 C 325.414062 802.652344 326.40625 797.191406 327.398438 791.855469 C 328.390625 786.519531 329.382812 781.058594 330.253906 775.722656 C 325.910156 775.722656 320.574219 775.226562 314.617188 773.984375 C 309.28125 772.867188 304.8125 771.378906 301.089844 769.765625 Z M 426.058594 436.308594 C 400.492188 435.9375 374.804688 435.9375 349.238281 435.9375 C 347.625 435.9375 347.625 438.417969 349.238281 438.417969 C 374.804688 438.417969 400.492188 438.542969 426.058594 438.292969 C 427.296875 438.292969 427.296875 436.308594 426.058594 436.308594 Z M 426.058594 436.308594 " fill-opacity="1" fill-rule="nonzero"/><path fill="#3d1e15" d="M 376.167969 315.4375 C 375.050781 314.9375 375.921875 313.078125 377.039062 313.449219 C 384.113281 316.304688 391.683594 316.429688 398.632812 313.203125 C 400.121094 312.582031 401.363281 314.691406 399.871094 315.4375 C 392.054688 318.910156 383.863281 319.035156 376.167969 315.4375 Z M 365 329.210938 C 361.773438 343.359375 370.832031 357.503906 385.601562 358.996094 C 401.484375 360.609375 413.277344 347.082031 411.910156 331.816406 C 411.785156 330.203125 409.179688 330.203125 409.429688 331.816406 C 410.667969 344.351562 401.859375 356.886719 388.332031 356.636719 C 373.8125 356.390625 364.753906 343.605469 367.109375 329.832031 C 367.359375 328.34375 365.371094 327.722656 365 329.210938 Z M 296.871094 607.070312 C 354.078125 641.324219 426.058594 636.109375 477.0625 592.921875 C 478.304688 591.929688 476.566406 590.070312 475.324219 591.1875 C 425.3125 633.503906 354.203125 638.46875 297.988281 605.210938 C 296.746094 604.464844 295.628906 606.324219 296.871094 607.070312 Z M 238.789062 191.707031 C 240.652344 193.941406 243.132812 195.679688 245.367188 197.539062 C 247.476562 199.277344 249.464844 201.265625 251.820312 202.628906 C 252.9375 203.25 253.929688 201.882812 253.1875 200.890625 C 251.324219 198.65625 248.71875 196.921875 246.359375 195.183594 C 244.375 193.570312 242.265625 191.707031 239.90625 190.34375 C 239.039062 189.847656 238.171875 190.964844 238.789062 191.707031 Z M 232.957031 193.941406 C 235.316406 195.925781 237.796875 197.789062 240.15625 199.652344 C 242.515625 201.511719 244.871094 203.621094 247.601562 205.109375 C 248.71875 205.730469 249.835938 204.367188 248.96875 203.375 C 246.980469 201.265625 244.375 199.652344 242.015625 197.914062 C 239.410156 196.050781 236.804688 194.066406 234.199219 192.203125 C 233.207031 191.585938 231.964844 193.199219 232.957031 193.941406 Z M 231.34375 198.410156 C 235.441406 202.257812 240.03125 206.226562 244.625 209.332031 C 245.742188 210.074219 246.980469 208.335938 246.113281 207.46875 C 242.015625 203.621094 237.300781 200.023438 232.585938 196.796875 C 231.71875 196.050781 230.601562 197.539062 231.34375 198.410156 Z M 245.121094 211.191406 C 246.113281 208.832031 247.726562 206.847656 249.710938 205.359375 C 251.574219 203.871094 253.683594 203.496094 255.792969 202.503906 C 256.910156 202.007812 256.289062 200.394531 255.171875 200.394531 C 249.585938 200.269531 244.746094 205.855469 243.132812 210.695312 C 242.761719 211.9375 244.625 212.308594 245.121094 211.191406 Z M 257.035156 206.972656 C 257.035156 210.324219 256.660156 213.921875 257.15625 217.148438 C 257.40625 218.515625 259.265625 218.015625 259.390625 216.902344 C 259.765625 213.675781 259.390625 210.199219 259.265625 206.972656 C 259.144531 205.484375 257.035156 205.484375 257.035156 206.972656 Z M 261.128906 209.207031 C 261.378906 210.445312 261.5 211.8125 261.996094 213.054688 C 262.371094 214.171875 264.230469 214.171875 264.230469 212.804688 C 264.105469 211.441406 263.734375 210.074219 263.363281 208.710938 C 262.867188 207.21875 260.878906 207.839844 261.128906 209.207031 Z M 540.355469 197.664062 C 535.515625 200.644531 530.300781 203.496094 525.835938 207.097656 C 524.71875 207.964844 525.585938 209.828125 526.949219 209.082031 C 532.039062 206.351562 536.753906 202.878906 541.46875 199.652344 C 542.710938 198.78125 541.59375 196.921875 540.355469 197.664062 Z M 544.820312 200.519531 C 539.609375 204.117188 534.273438 207.71875 529.183594 211.316406 C 527.695312 212.308594 529.433594 214.542969 530.675781 213.300781 C 530.796875 213.300781 530.796875 213.175781 530.921875 213.175781 C 531.542969 212.558594 531.171875 211.6875 530.425781 211.316406 C 530.300781 211.316406 530.300781 211.191406 530.175781 211.191406 C 530.300781 211.9375 530.425781 212.679688 530.425781 213.425781 C 535.636719 209.828125 540.726562 205.980469 545.9375 202.257812 C 547.054688 201.636719 545.9375 199.773438 544.820312 200.519531 Z M 545.9375 205.855469 C 541.347656 208.460938 537.003906 211.5625 532.785156 214.542969 C 531.417969 215.410156 532.660156 217.644531 534.023438 216.652344 C 538.492188 213.675781 542.960938 210.695312 547.179688 207.34375 C 548.046875 206.722656 546.929688 205.234375 545.9375 205.855469 Z M 523.105469 208.089844 C 527.199219 211.066406 530.175781 214.789062 532.660156 219.132812 C 533.402344 220.5 535.390625 219.257812 534.769531 217.894531 C 532.535156 212.929688 528.6875 209.082031 524.097656 206.226562 C 522.980469 205.605469 522.109375 207.34375 523.105469 208.089844 Z M 526.207031 213.796875 C 522.484375 214.789062 518.265625 215.535156 514.664062 217.148438 C 513.425781 217.769531 514.417969 219.257812 515.535156 219.132812 C 519.257812 218.636719 523.105469 216.902344 526.703125 215.660156 C 527.945312 215.289062 527.449219 213.425781 526.207031 213.796875 Z M 524.71875 218.636719 C 523.351562 219.257812 521.863281 219.628906 520.746094 220.746094 C 520.125 221.367188 520.496094 222.609375 521.492188 222.484375 C 523.105469 222.238281 524.46875 221.367188 525.835938 220.625 C 527.199219 219.878906 526.082031 218.015625 524.71875 218.636719 Z M 309.28125 278.082031 C 307.542969 279.074219 305.804688 280.066406 304.066406 281.058594 C 302.453125 282.054688 300.714844 282.796875 299.476562 284.164062 C 298.730469 284.90625 299.476562 286.273438 300.46875 285.898438 C 302.207031 285.402344 303.695312 284.164062 305.308594 283.167969 C 307.046875 282.054688 308.660156 280.9375 310.398438 279.941406 C 311.636719 279.199219 310.519531 277.335938 309.28125 278.082031 Z M 467.753906 279.820312 C 469.863281 282.175781 471.851562 285.15625 474.457031 287.015625 C 475.449219 287.761719 476.566406 286.394531 476.070312 285.402344 C 475.324219 284.039062 474.085938 282.921875 472.96875 281.804688 C 471.851562 280.5625 470.734375 279.324219 469.617188 277.957031 C 468.375 276.839844 466.636719 278.578125 467.753906 279.820312 Z M 329.011719 638.59375 C 330.003906 643.929688 336.953125 645.664062 340.179688 641.074219 C 340.925781 639.957031 339.1875 638.59375 338.320312 639.585938 C 335.960938 642.066406 331.988281 641.570312 331.246094 637.972656 C 330.875 636.605469 328.761719 637.226562 329.011719 638.59375 Z M 425.1875 637.847656 C 429.410156 641.074219 437.351562 639.957031 438.59375 633.875 C 438.839844 632.636719 437.226562 631.890625 436.480469 633.007812 C 435.363281 634.621094 434.621094 636.234375 432.636719 636.980469 C 430.523438 637.847656 428.167969 637.351562 426.304688 635.984375 C 425.066406 635.117188 424.070312 636.980469 425.1875 637.847656 Z M 452.492188 805.507812 C 481.902344 800.914062 511.066406 795.332031 540.355469 790.117188 C 541.96875 789.871094 541.222656 787.386719 539.734375 787.636719 C 510.445312 792.847656 481.15625 797.6875 452.117188 803.644531 C 450.628906 803.894531 451.25 805.753906 452.492188 805.507812 Z M 324.171875 804.140625 C 295.132812 799.054688 265.84375 794.710938 236.679688 790.117188 C 235.066406 789.871094 234.449219 792.351562 236.0625 792.601562 C 265.347656 797.191406 294.636719 801.90625 323.921875 805.753906 C 324.917969 805.878906 325.039062 804.265625 324.171875 804.140625 Z M 297.488281 599.996094 C 354.949219 628.292969 422.832031 620.347656 474.207031 583.121094 C 475.449219 582.25 474.332031 580.140625 472.96875 581.007812 C 420.226562 617.867188 357.429688 624.320312 298.605469 598.257812 C 297.367188 597.640625 296.25 599.375 297.488281 599.996094 Z M 383.242188 513.871094 C 379.644531 532.363281 375.796875 550.730469 372.820312 569.34375 C 372.570312 570.832031 374.679688 571.453125 375.050781 569.964844 C 379.023438 551.597656 382.25 532.984375 385.476562 514.492188 C 385.726562 513.003906 383.492188 512.382812 383.242188 513.871094 Z M 398.632812 535.214844 C 398.382812 540.304688 397.886719 545.515625 398.011719 550.730469 C 398.011719 552.34375 400.246094 552.21875 400.367188 550.730469 C 400.988281 545.640625 400.988281 540.429688 401.238281 535.214844 C 401.238281 533.601562 398.753906 533.601562 398.632812 535.214844 Z M 357.679688 260.832031 C 356.191406 259.09375 354.078125 260.582031 353.832031 262.445312 C 353.582031 264.183594 353.832031 266.042969 353.832031 267.78125 C 353.957031 269.644531 353.832031 271.503906 354.203125 273.242188 C 354.453125 274.234375 356.066406 274.359375 356.3125 273.242188 C 356.5625 271.503906 356.4375 269.644531 356.3125 267.78125 C 356.3125 266.914062 356.191406 266.042969 356.191406 265.175781 C 356.191406 264.554688 356.066406 264.058594 356.066406 263.4375 C 355.941406 262.941406 356.066406 262.445312 356.3125 262.074219 C 357.304688 263.066406 358.546875 261.699219 357.679688 260.832031 Z M 421.34375 264.183594 C 422.335938 261.949219 422.957031 267.90625 422.832031 266.789062 C 422.957031 267.78125 422.957031 268.898438 422.957031 269.890625 C 422.957031 272.25 422.582031 274.484375 422.335938 276.714844 C 422.085938 278.207031 424.195312 278.949219 424.691406 277.335938 C 425.3125 274.855469 425.5625 272.375 425.5625 269.890625 C 425.5625 268.03125 425.5625 265.546875 424.816406 263.808594 C 423.699219 261.578125 420.84375 261.203125 419.851562 263.5625 C 419.355469 264.429688 420.96875 265.175781 421.34375 264.183594 Z M 381.132812 258.101562 C 377.285156 253.136719 370.210938 255.125 367.484375 260.210938 C 366.738281 261.699219 368.847656 262.941406 369.59375 261.453125 C 371.578125 257.605469 376.542969 255.867188 379.644531 259.464844 C 380.511719 260.460938 381.878906 259.09375 381.132812 258.101562 Z M 398.632812 260.460938 C 402.726562 257.480469 406.945312 259.464844 409.304688 263.3125 C 409.925781 264.429688 411.910156 263.6875 411.414062 262.445312 C 409.550781 256.488281 402.230469 255.246094 397.515625 258.722656 C 396.523438 259.464844 397.515625 261.203125 398.632812 260.460938 Z M 386.097656 284.410156 C 391.683594 275.847656 389.449219 265.921875 389.199219 256.238281 C 389.199219 254.625 386.59375 254.625 386.71875 256.238281 C 386.964844 265.421875 389.449219 274.980469 384.359375 283.292969 C 383.492188 284.535156 385.351562 285.652344 386.097656 284.410156 Z M 374.058594 272 C 374.308594 270.882812 374.929688 268.648438 376.542969 269.765625 C 377.78125 270.511719 377.535156 272.375 378.15625 273.613281 C 378.527344 274.484375 380.015625 274.234375 380.140625 273.367188 C 380.636719 270.882812 379.148438 267.65625 376.417969 267.285156 C 373.8125 266.914062 372.445312 269.269531 372.074219 271.503906 C 371.824219 272.746094 373.8125 273.242188 374.058594 272 Z M 400.121094 271.378906 C 399.625 268.277344 404.464844 268.648438 403.222656 271.628906 C 402.601562 273.117188 405.085938 273.738281 405.707031 272.25 C 406.699219 269.644531 404.960938 266.664062 402.105469 266.664062 C 399.253906 266.664062 397.515625 269.269531 398.011719 271.875 C 398.257812 273.367188 400.367188 272.746094 400.121094 271.378906 Z M 376.542969 292.476562 C 385.601562 294.960938 395.652344 292.972656 402.355469 286.023438 C 403.472656 284.90625 401.859375 283.417969 400.617188 284.285156 C 393.914062 289.996094 385.726562 292.476562 377.039062 290.492188 C 375.796875 290.121094 375.175781 292.105469 376.542969 292.476562 Z M 375.550781 291.609375 C 374.554688 299.425781 380.761719 306.253906 388.828125 305.382812 C 398.632812 304.390625 401.484375 293.964844 402.601562 285.777344 C 402.851562 284.164062 400.367188 283.542969 400.121094 285.15625 C 399.253906 291.234375 398.011719 298.929688 391.804688 301.910156 C 384.359375 305.382812 377.164062 299.304688 377.535156 291.609375 C 377.660156 290.242188 375.671875 290.367188 375.550781 291.609375 Z M 257.652344 785.152344 C 259.019531 786.519531 260.382812 788.628906 262.121094 789.375 C 263.113281 789.746094 263.984375 789 263.488281 788.007812 C 262.617188 786.269531 260.507812 784.90625 259.144531 783.539062 C 258.152344 782.671875 256.660156 784.160156 257.652344 785.152344 Z M 266.464844 785.898438 C 267.582031 787.265625 268.824219 788.753906 270.3125 789.746094 C 271.304688 790.367188 272.296875 789.125 271.800781 788.257812 C 270.933594 786.765625 269.445312 785.527344 268.078125 784.285156 C 266.960938 783.167969 265.472656 784.78125 266.464844 785.898438 Z M 273.910156 785.277344 C 275.402344 786.644531 276.890625 788.007812 278.503906 789.25 C 279.742188 790.242188 281.480469 788.503906 280.242188 787.511719 C 278.628906 786.148438 277.015625 785.03125 275.402344 783.664062 C 274.285156 782.921875 272.792969 784.410156 273.910156 785.277344 Z M 499.898438 783.789062 C 498.90625 785.152344 497.664062 786.394531 496.917969 787.882812 C 496.421875 789 497.664062 790.117188 498.65625 789.25 C 499.898438 788.007812 500.765625 786.394531 501.757812 784.90625 C 502.628906 783.664062 500.765625 782.671875 499.898438 783.789062 Z M 508.460938 784.90625 C 507.714844 785.898438 506.972656 786.890625 506.351562 787.882812 C 505.359375 789.125 507.589844 790.492188 508.460938 789.125 C 509.203125 788.132812 509.824219 787.140625 510.570312 786.148438 C 511.4375 784.78125 509.328125 783.539062 508.460938 784.90625 Z M 518.265625 782.175781 C 517.269531 783.292969 516.152344 784.410156 515.285156 785.773438 C 514.539062 786.890625 516.152344 788.007812 517.148438 787.140625 C 518.265625 786.148438 519.132812 784.78125 520 783.539062 C 520.871094 782.546875 519.132812 781.183594 518.265625 782.175781 Z M 518.265625 782.175781 " fill-opacity="1" fill-rule="nonzero"/></svg>